# xmcd
#
# Track frame offsets:
#      150
#      17755
#      33356
#      50627
#      67632
#      95625
#      110785
#      122211
#      135766
#      156316
# 
# Disc length: 2367 seconds
#
# Revision: 2
# Processed by: cddbd v1.5.1PL0 Copyright (c) Steve Scherf et al.
#
# Submitted via: FreeRIP 1.21
#
DISCID=81093d0a
DTITLE=Gilbert Hetherwick - Deep South
DYEAR=2002
DGENRE=Blues
TTITLE0=Airline Highway
TTITLE1=Jackson Avenue
TTITLE2=Under the Moonlight with You
TTITLE3=The Plaquemine Ferry
TTITLE4=Hot Sparks
TTITLE5=Fog on the Levee
TTITLE6=Can't You See That I Care
TTITLE7=Nasty Talkin Fool
TTITLE8=200 Years
TTITLE9=Tonight I Want to Believe
EXTD=
EXTT0=
EXTT1=
EXTT2=
EXTT3=
EXTT4=
EXTT5=
EXTT6=
EXTT7=
EXTT8=
EXTT9=
PLAYORDER=
